<svg width="713" height="115" viewBox="0 0 713 115" fill="none" xmlns="http://www.w3.org/2000/svg">
<rect x="4" y="4" width="704" height="96" rx="10" fill="#212121"/>
<g filter="url(#filter0_d_1_3)">
<path d="M507.496 64V60.384L516.68 49.92H507.784V46.4H521.352V50.016L512.072 60.48H521.704V64H507.496ZM533.82 64.32C532.326 64.32 531.025 64.032 529.916 63.456C528.806 62.88 527.942 62.0693 527.324 61.024C526.726 59.9573 526.428 58.7093 526.428 57.28V53.12C526.428 51.6907 526.726 50.4533 527.324 49.408C527.942 48.3413 528.806 47.52 529.916 46.944C531.025 46.368 532.326 46.08 533.82 46.08C535.292 46.08 536.572 46.368 537.66 46.944C538.769 47.52 539.622 48.3307 540.22 49.376C540.838 50.4 541.148 51.6053 541.148 52.992V56.192H530.268V57.408C530.268 58.6027 530.577 59.5093 531.196 60.128C531.814 60.7253 532.689 61.024 533.82 61.024C534.652 61.024 535.356 60.8853 535.932 60.608C536.529 60.3093 536.881 59.8827 536.988 59.328H540.956C540.678 60.8427 539.889 62.0587 538.588 62.976C537.286 63.872 535.697 64.32 533.82 64.32ZM530.268 52.992V53.6L537.308 53.568V52.96C537.308 51.744 537.009 50.8053 536.412 50.144C535.814 49.4827 534.95 49.152 533.82 49.152C532.646 49.152 531.761 49.4933 531.164 50.176C530.566 50.8373 530.268 51.776 530.268 52.992ZM546.479 64V46.4H550.383V49.824C550.596 48.672 551.119 47.7653 551.951 47.104C552.804 46.4213 553.903 46.08 555.247 46.08C557.039 46.08 558.436 46.656 559.439 47.808C560.442 48.96 560.943 50.5707 560.943 52.64V54.304H556.943V52.832C556.943 51.7653 556.666 50.9547 556.111 50.4C555.556 49.824 554.767 49.536 553.743 49.536C552.676 49.536 551.866 49.856 551.311 50.496C550.756 51.136 550.479 52.0427 550.479 53.216V64H546.479ZM572.163 64.288C569.901 64.288 568.109 63.6587 566.786 62.4C565.464 61.12 564.803 59.4027 564.803 57.248V53.152C564.803 50.976 565.464 49.2587 566.786 48C568.109 46.7413 569.901 46.112 572.163 46.112C574.424 46.112 576.216 46.7413 577.539 48C578.861 49.2587 579.523 50.976 579.523 53.152V57.248C579.523 59.4027 578.861 61.12 577.539 62.4C576.216 63.6587 574.424 64.288 572.163 64.288ZM572.163 60.8C573.229 60.8 574.051 60.512 574.627 59.936C575.224 59.3387 575.523 58.4853 575.523 57.376V53.024C575.523 51.9147 575.224 51.072 574.627 50.496C574.051 49.8987 573.229 49.6 572.163 49.6C571.096 49.6 570.264 49.8987 569.667 50.496C569.091 51.072 568.803 51.9147 568.803 53.024V57.376C568.803 58.4853 569.091 59.3387 569.667 59.936C570.264 60.512 571.096 60.8 572.163 60.8ZM584.214 64V40.64H591.99C593.547 40.64 594.902 40.9387 596.054 41.536C597.227 42.1333 598.134 42.976 598.774 44.064C599.414 45.1307 599.734 46.3893 599.734 47.84C599.734 49.2907 599.414 50.56 598.774 51.648C598.134 52.7147 597.227 53.5467 596.054 54.144C594.902 54.7413 593.547 55.04 591.99 55.04H588.214V64H584.214ZM588.214 51.52H591.99C593.121 51.52 594.017 51.1787 594.678 50.496C595.339 49.8133 595.67 48.928 595.67 47.84C595.67 46.752 595.339 45.8667 594.678 45.184C594.017 44.5013 593.121 44.16 591.99 44.16H588.214V51.52ZM604.042 64V46.4H607.946V49.824C608.159 48.672 608.682 47.7653 609.514 47.104C610.367 46.4213 611.466 46.08 612.81 46.08C614.602 46.08 615.999 46.656 617.002 47.808C618.004 48.96 618.506 50.5707 618.506 52.64V54.304H614.506V52.832C614.506 51.7653 614.228 50.9547 613.674 50.4C613.119 49.824 612.33 49.536 611.306 49.536C610.239 49.536 609.428 49.856 608.874 50.496C608.319 51.136 608.042 52.0427 608.042 53.216V64H604.042ZM629.725 64.288C627.464 64.288 625.672 63.6587 624.349 62.4C623.026 61.12 622.365 59.4027 622.365 57.248V53.152C622.365 50.976 623.026 49.2587 624.349 48C625.672 46.7413 627.464 46.112 629.725 46.112C631.986 46.112 633.778 46.7413 635.101 48C636.424 49.2587 637.085 50.976 637.085 53.152V57.248C637.085 59.4027 636.424 61.12 635.101 62.4C633.778 63.6587 631.986 64.288 629.725 64.288ZM629.725 60.8C630.792 60.8 631.613 60.512 632.189 59.936C632.786 59.3387 633.085 58.4853 633.085 57.376V53.024C633.085 51.9147 632.786 51.072 632.189 50.496C631.613 49.8987 630.792 49.6 629.725 49.6C628.658 49.6 627.826 49.8987 627.229 50.496C626.653 51.072 626.365 51.9147 626.365 53.024V57.376C626.365 58.4853 626.653 59.3387 627.229 59.936C627.826 60.512 628.658 60.8 629.725 60.8ZM650.513 64.32C649.275 64.32 648.241 64.0107 647.409 63.392C646.577 62.7733 646.001 61.9093 645.681 60.8V64H641.777V40.64H645.777V45.568L645.649 49.6C645.99 48.4907 646.577 47.6267 647.409 47.008C648.262 46.3893 649.297 46.08 650.513 46.08C652.241 46.08 653.627 46.688 654.673 47.904C655.718 49.12 656.241 50.7627 656.241 52.832V57.6C656.241 59.648 655.707 61.28 654.641 62.496C653.595 63.712 652.219 64.32 650.513 64.32ZM649.009 60.864C650.033 60.864 650.822 60.5867 651.377 60.032C651.953 59.4773 652.241 58.624 652.241 57.472V52.928C652.241 51.776 651.953 50.9227 651.377 50.368C650.822 49.8133 650.033 49.536 649.009 49.536C647.985 49.536 647.185 49.8453 646.609 50.464C646.054 51.0827 645.777 51.9573 645.777 53.088V57.312C645.777 58.4427 646.054 59.3173 646.609 59.936C647.185 60.5547 647.985 60.864 649.009 60.864ZM668.132 64.32C666.639 64.32 665.337 64.032 664.228 63.456C663.119 62.88 662.255 62.0693 661.636 61.024C661.039 59.9573 660.74 58.7093 660.74 57.28V53.12C660.74 51.6907 661.039 50.4533 661.636 49.408C662.255 48.3413 663.119 47.52 664.228 46.944C665.337 46.368 666.639 46.08 668.132 46.08C669.604 46.08 670.884 46.368 671.972 46.944C673.081 47.52 673.935 48.3307 674.532 49.376C675.151 50.4 675.46 51.6053 675.46 52.992V56.192H664.58V57.408C664.58 58.6027 664.889 59.5093 665.508 60.128C666.127 60.7253 667.001 61.024 668.132 61.024C668.964 61.024 669.668 60.8853 670.244 60.608C670.841 60.3093 671.193 59.8827 671.3 59.328H675.268C674.991 60.8427 674.201 62.0587 672.9 62.976C671.599 63.872 670.009 64.32 668.132 64.32ZM664.58 52.992V53.6L671.62 53.568V52.96C671.62 51.744 671.321 50.8053 670.724 50.144C670.127 49.4827 669.263 49.152 668.132 49.152C666.959 49.152 666.073 49.4933 665.476 50.176C664.879 50.8373 664.58 51.776 664.58 52.992Z" fill="#F8F9FA"/>
</g>
<mask id="mask0_1_3" style="mask-type:alpha" maskUnits="userSpaceOnUse" x="34" y="36" width="32" height="32">
<rect x="34" y="36" width="32" height="32" fill="#212121"/>
</mask>
<g mask="url(#mask0_1_3)">
<path d="M59.4667 65.8666C59.2667 65.8666 59.0778 65.8333 58.9 65.7666C58.7222 65.7 58.5555 65.5889 58.4 65.4333L51.4667 58.5C51.3111 58.3444 51.2 58.1777 51.1333 58C51.0667 57.8222 51.0333 57.6333 51.0333 57.4333C51.0333 57.2333 51.0667 57.0386 51.1333 56.8493C51.2 56.6609 51.3111 56.5 51.4667 56.3666L54.3 53.5C54.4555 53.3444 54.6222 53.2333 54.8 53.1666C54.9778 53.1 55.1667 53.0666 55.3667 53.0666C55.5667 53.0666 55.7609 53.1 55.9493 53.1666C56.1387 53.2333 56.3 53.3444 56.4333 53.5L63.4 60.4666C63.5555 60.6222 63.6667 60.7889 63.7333 60.9666C63.8 61.1444 63.8333 61.3333 63.8333 61.5333C63.8333 61.7333 63.8 61.9222 63.7333 62.1C63.6667 62.2778 63.5555 62.4444 63.4 62.6L60.5333 65.4333C60.4 65.5889 60.2391 65.7 60.0507 65.7666C59.8613 65.8333 59.6667 65.8666 59.4667 65.8666ZM40.5 65.9C40.3 65.9 40.1058 65.8609 39.9173 65.7826C39.728 65.7053 39.5555 65.5889 39.4 65.4333L36.6 62.6333C36.4444 62.4778 36.328 62.3053 36.2507 62.116C36.1724 61.9275 36.1333 61.7333 36.1333 61.5333C36.1333 61.3333 36.1724 61.1444 36.2507 60.9666C36.328 60.7889 36.4444 60.6222 36.6 60.4666L43.9 53.1666H46.8333L47.9333 52.0666L42.3 46.4333H40.3333L36.0667 42.1666L40.1 38.1666L44.3333 42.4333V44.4L49.9667 50.0333L53.8667 46.1333L52.4 44.6333L54.2667 42.7666H50.5L49.4667 41.7333L54.4667 36.7333L55.5 37.7666V41.5333L57.3667 39.6666L62.3333 44.6333C62.7333 45.0111 63.0391 45.4498 63.2507 45.9493C63.4613 46.4498 63.5667 46.9889 63.5667 47.5666C63.5667 48.1444 63.4555 48.6942 63.2333 49.216C63.0111 49.7386 62.6889 50.2 62.2667 50.6L59.3333 47.6666L57.4 49.6L55.9667 48.1666L48.8667 55.2333V58.1333L41.5667 65.4333C41.4111 65.5889 41.2444 65.7053 41.0667 65.7826C40.8889 65.8609 40.7 65.9 40.5 65.9Z" fill="#F8F9FA"/>
</g>
<mask id="mask1_1_3" style="mask-type:alpha" maskUnits="userSpaceOnUse" x="80" y="36" width="32" height="32">
<rect x="80" y="36" width="32" height="32" fill="#212121"/>
</mask>
<g mask="url(#mask1_1_3)">
<path d="M90.9333 60.1C90.1111 60.1 89.4 59.8 88.8 59.2C88.2 58.6 87.9 57.8889 87.9 57.0666V41.2333C87.9 40.4111 88.2 39.7 88.8 39.1C89.4 38.5 90.1111 38.2 90.9333 38.2H106.767C107.589 38.2 108.3 38.5 108.9 39.1C109.5 39.7 109.8 40.4111 109.8 41.2333V57.0666C109.8 57.8889 109.5 58.6 108.9 59.2C108.3 59.8 107.589 60.1 106.767 60.1H90.9333ZM85.2333 65.8C84.4111 65.8 83.7 65.5 83.1 64.9C82.5 64.3 82.2 63.5889 82.2 62.7666V43.9H85.2333V62.7666H104.1V65.8H85.2333Z" fill="#F8F9FA"/>
</g>
<mask id="mask2_1_3" style="mask-type:alpha" maskUnits="userSpaceOnUse" x="126" y="36" width="32" height="32">
<rect x="126" y="36" width="32" height="32" fill="#212121"/>
</mask>
<g mask="url(#mask2_1_3)">
<path d="M134.933 59.9C134.733 59.9 134.544 59.8609 134.367 59.7827C134.189 59.7053 134.022 59.5889 133.867 59.4333L128.233 53.8C127.944 53.5333 127.8 53.1831 127.8 52.7493C127.8 52.3164 127.944 51.9556 128.233 51.6667C128.522 51.3778 128.878 51.2333 129.3 51.2333C129.722 51.2333 130.078 51.3778 130.367 51.6667L137.1 58.4L136 59.4333C135.844 59.5889 135.678 59.7053 135.5 59.7827C135.322 59.8609 135.133 59.9 134.933 59.9ZM142.467 59.6333C142.267 59.6333 142.078 59.6 141.9 59.5333C141.722 59.4667 141.556 59.3556 141.4 59.2L135.733 53.5333C135.444 53.2444 135.3 52.8831 135.3 52.4493C135.3 52.0164 135.444 51.6556 135.733 51.3667C136.022 51.0778 136.378 50.9333 136.8 50.9333C137.222 50.9333 137.578 51.0778 137.867 51.3667L142.467 55.9667L153.667 44.7667C153.933 44.5 154.284 44.3667 154.717 44.3667C155.15 44.3667 155.511 44.5 155.8 44.7667C156.067 45.0556 156.2 45.4164 156.2 45.8493C156.2 46.2831 156.067 46.6444 155.8 46.9333L143.533 59.2C143.378 59.3556 143.211 59.4667 143.033 59.5333C142.856 59.6 142.667 59.6333 142.467 59.6333ZM142.467 52.4667L140.333 50.3333L145.867 44.8C146.133 44.5111 146.484 44.3667 146.917 44.3667C147.35 44.3667 147.711 44.5111 148 44.8C148.289 45.0889 148.433 45.4444 148.433 45.8667C148.433 46.2889 148.289 46.6444 148 46.9333L142.467 52.4667Z" fill="#F8F9FA"/>
</g>
<defs>
<filter id="filter0_d_1_3" x="505.496" y="38.64" width="171.964" height="27.68" filterUnits="userSpaceOnUse" color-interpolation-filters="sRGB">
<feFlood flood-opacity="0" result="BackgroundImageFix"/>
<feColorMatrix in="SourceAlpha" type="matrix" values="0 0 0 0 0 0 0 0 0 0 0 0 0 0 0 0 0 0 127 0" result="hardAlpha"/>
<feOffset/>
<feGaussianBlur stdDeviation="1"/>
<feComposite in2="hardAlpha" operator="out"/>
<feColorMatrix type="matrix" values="0 0 0 0 0 0 0 0 0 0 0 0 0 0 0 0 0 0 0.45 0"/>
<feBlend mode="normal" in2="BackgroundImageFix" result="effect1_dropShadow_1_3"/>
<feBlend mode="normal" in="SourceGraphic" in2="effect1_dropShadow_1_3" result="shape"/>
</filter>
</defs>
</svg>
